<svg xmlns="http://www.w3.org/2000/svg" viewBox="0 0 481.93 481.92"><path d="M116.12,263a39,39,0,0,1-6.4,11.13A32.77,32.77,0,0,1,84.1,285.57c-19.63,0-34.65-14.38-34.65-39.16,0-25.2,16.28-38.74,35.18-38.74,23.1,0,28.56,17.74,30.24,22.88L101,234.23a18.92,18.92,0,0,0-2.74-7.35c-1.57-2.31-5.66-6.51-13.33-6.51-12.07,0-20.47,10-20.47,25.83,0,16.9,8.93,26.25,20.58,26.25,6.92,0,11.12-3.36,14.17-7.25a24.09,24.09,0,0,0,3.88-7.67Z" transform="translate(-15.03 -15.04)" style="fill:#fff"/><rect x="116.41" y="194.51" width="13.65" height="74.12" style="fill:#fff"/><path d="M169.76,209.56h23.63c9.87.1,16.48.1,23,5.35,4.62,3.78,8.19,9.66,8.19,18.27,0,14.17-10.4,19.11-14.6,20.37l16.49,30.13H210.61l-14.7-27.5H183.52v27.5H169.76Zm13.76,12v23.2h4.83c4.72,0,6.51-.11,9.13-.21,3-.11,13-.63,13-11.44a10.61,10.61,0,0,0-5.88-10c-2.94-1.47-6.5-1.57-14.7-1.57Z" transform="translate(-15.03 -15.04)" style="fill:#fff"/><path d="M304.89,263a39.05,39.05,0,0,1-6.41,11.13,32.73,32.73,0,0,1-25.61,11.44c-19.64,0-34.66-14.38-34.66-39.16,0-25.2,16.28-38.74,35.19-38.74,23.09,0,28.55,17.74,30.23,22.88l-13.86,3.68a18.7,18.7,0,0,0-2.73-7.35c-1.57-2.31-5.67-6.51-13.33-6.51-12.07,0-20.48,10-20.48,25.83,0,16.9,8.93,26.25,20.58,26.25,6.93,0,11.13-3.36,14.18-7.25a24.31,24.31,0,0,0,3.88-7.67Z" transform="translate(-15.03 -15.04)" style="fill:#fff"/><path d="M407.67,261.63c1.78,2.74,7.34,11.24,23,11.24a21.2,21.2,0,0,0,8-1.26c5.35-2.21,6.3-6,6.3-8.51,0-4.72-3.26-6.4-5.57-7.34-1.68-.64-1.89-.74-8.61-2.32l-8.92-1.88a68.78,68.78,0,0,1-9.34-2.63c-3.36-1.37-12.5-5.88-12.5-18.17,0-14.06,11.87-23.09,29.29-23.09,16,0,24.57,7.87,29.82,15l-11.34,8.5c-2.52-3.67-7.35-11-19.21-11-7.46,0-14,3.36-14,9,0,6.3,6.92,7.56,13.65,8.82l7.66,1.68c10,2.1,24,6.2,24,22.05,0,17-15.75,23.83-31.5,23.83a49.75,49.75,0,0,1-13.23-1.68c-4.93-1.47-13.65-5-19.21-14.07Z" transform="translate(-15.03 -15.04)" style="fill:#fff"/><path d="M322.08,424.09l2.64,4.79c.41.83.48,1,.84,1.82.38-.88.47-1.13,1-2.14l2.48-4.47h6.59l-7.22,11.19V440h-5.64v-4.74l-7.32-11.19Z" transform="translate(-15.03 -15.04)" style="fill:#fff"/><polygon points="285.39 298.02 161.66 349.06 157.24 338.37 280.96 287.33 285.39 298.02" style="fill:#fff"/><polygon points="308.76 344.36 182.12 301.03 185.86 290.1 312.49 333.44 308.76 344.36" style="fill:#fff"/><rect x="167.45" y="339.37" width="1.81" height="70.9" style="fill:#fff"/><rect x="303.23" y="335.52" width="1.81" height="74.14" style="fill:#fff"/><rect x="277.35" y="297.28" width="1.81" height="113.34" style="fill:#fff"/><rect x="257.14" y="319.15" width="1.8" height="91.47" style="fill:#fff"/><rect x="193.97" y="295.09" width="1.8" height="115.53" style="fill:#fff"/><rect x="223.11" y="317.23" width="1.8" height="93.39" style="fill:#fff"/><path d="M206.64,424.08h6.49L220,440h-6.2l-.86-2.6h-6.1L206,440h-6.25Zm3.27,4.43-1.83,5.39h3.7Z" transform="translate(-15.03 -15.04)" style="fill:#fff"/><polygon points="160.55 409.04 176.16 409.04 176.16 412.64 166.26 412.64 166.26 415.68 175.35 415.68 175.35 419.25 166.26 419.25 166.26 424.97 160.55 424.97 160.55 409.04" style="fill:#fff"/><polygon points="220.66 408.85 228.02 410.53 229.62 421.57 235.85 412.32 243.21 414 239.65 429.53 234.15 428.28 236.42 418.33 230.48 427.43 226.19 426.46 224.82 415.73 222.56 425.62 217.11 424.38 220.66 408.85" style="fill:#fff"/><rect x="255.35" y="409.04" width="5.71" height="15.93" style="fill:#fff"/><polygon points="281.26 409.04 281.26 421.09 289.38 421.09 289.38 424.97 275.52 424.97 275.52 409.04 281.26 409.04" style="fill:#fff"/><path d="M256,497C123.13,497,15,388.86,15,256S123.13,15,256,15,497,123.13,497,256,388.87,497,256,497M256,19.8c-130.25,0-236.21,106-236.21,236.2S125.75,492.21,256,492.21,492.21,386.24,492.21,256,386.25,19.8,256,19.8" transform="translate(-15.03 -15.04)" style="fill:#fff"/><path d="M78.15,168.8l-2.43,5,2.21,2-1.29,2.66-11.1-11,1.38-2.82,15.51,2-1.3,2.65Zm-2.49-.39-7-1.17,5.22,4.84Z" transform="translate(-15.03 -15.04)" style="fill:#fff"/><path d="M79.85,142.21l7.89,4.94c1.41.9,2.58,1.63,2.89,3.68a6.74,6.74,0,0,1-1.14,4.54,7.93,7.93,0,0,1-1.72,2,4.67,4.67,0,0,1-4.15,1A10.43,10.43,0,0,1,81,157l-7.47-4.66L75,150l7.7,4.82a5.37,5.37,0,0,0,1.63.8,3,3,0,0,0,2.93-1.7,3.62,3.62,0,0,0,.64-2.39c-.19-1.08-.9-1.53-2-2.19l-7.58-4.73Z" transform="translate(-15.03 -15.04)" style="fill:#fff"/><path d="M86.47,132.74l3.29-4.15a7,7,0,0,1,3.61-2.71c2.89-.86,5.45.68,6.75,1.71,2,1.57,3.47,3.84,3.11,6.33a9.09,9.09,0,0,1-2.24,4.29l-2.94,3.7Zm3.68-.6,7.67,6.06.72-.92a9.78,9.78,0,0,0,1.88-2.92c.34-1.09.31-2.55-2.1-4.46-1.08-.85-3-2.09-5-1.1-.77.41-1.06.74-2.23,2.19Z" transform="translate(-15.03 -15.04)" style="fill:#fff"/><rect x="105.68" y="112.36" width="2.72" height="14.78" transform="translate(-68.57 100.94) rotate(-46.87)" style="fill:#fff"/><path d="M124.93,113a6.27,6.27,0,0,1-5.29,1.73A8.18,8.18,0,0,1,114.5,112c-3-3.36-2.94-7.84.07-10.54,2.73-2.45,7.1-2.72,10.46,1.05,2.82,3.15,3.28,7.49-.1,10.53m-8.68-9.68c-1.88,1.69-1.77,4.35.28,6.64,2.23,2.48,4.94,2.73,6.75,1.09,1.38-1.24,2.24-3.82-.09-6.5-1.89-2.19-4.78-3.18-6.94-1.23" transform="translate(-15.03 -15.04)" style="fill:#fff"/><polygon points="121.28 69.67 126.61 84.09 123.6 86.28 111.36 76.92 113.71 75.21 123.26 82.67 118.96 71.36 121.28 69.67" style="fill:#fff"/><polygon points="131.28 63.29 139.02 75.89 136.71 77.32 128.96 64.72 131.28 63.29" style="fill:#fff"/><path d="M161.93,81.36c.56.33,2.31,1.35,5.1,0a4.23,4.23,0,0,0,1.31-.94,1.76,1.76,0,0,0,.36-2.08,1.5,1.5,0,0,0-1.65-.81,11.39,11.39,0,0,0-1.73.36l-1.77.46a14.48,14.48,0,0,1-1.9.36,3.76,3.76,0,0,1-3.85-2.12c-1.26-2.51,0-5.18,3.16-6.73a6.9,6.9,0,0,1,6.66,0l-1.26,2.54a4.33,4.33,0,0,0-4.42-.26c-1.33.68-2.19,1.85-1.68,2.87s1.91.73,3.23.35l1.51-.39c2-.51,4.84-1,6.26,1.79,1.52,3-.68,5.65-3.49,7.06a9.77,9.77,0,0,1-2.51.88,6.58,6.58,0,0,1-4.68-.78Z" transform="translate(-15.03 -15.04)" style="fill:#fff"/><path d="M187.67,58.92l3.26,8.73c.56,1.58,1,2.87,0,4.67a6.71,6.71,0,0,1-3.68,2.91,8,8,0,0,1-2.59.54A4.63,4.63,0,0,1,180.82,74a10.51,10.51,0,0,1-1.23-2.69l-3.07-8.26,2.59-1,3.16,8.52a5.35,5.35,0,0,0,.81,1.62c1,1.13,2.53.75,3.36.44a3.6,3.6,0,0,0,2-1.51c.51-1,.22-1.75-.22-2.91l-3.11-8.38Z" transform="translate(-15.03 -15.04)" style="fill:#fff"/><path d="M208.1,65.4l-5.36,1.4-.1,3-2.86.74L200.87,55l3-.79,8.6,13-2.86.75Zm-1.32-2.15-3.67-6.06-.27,7.09Z" transform="translate(-15.03 -15.04)" style="fill:#fff"/><polygon points="207.69 47.76 213.48 46.83 213.88 49.31 205.34 50.68 202.99 36.07 205.74 35.62 207.69 47.76" style="fill:#fff"/><path d="M248.3,47.93l5.29-.07A7.06,7.06,0,0,1,258,49c2.49,1.7,2.91,4.67,2.93,6.32,0,2.53-.79,5.12-2.95,6.41a9.25,9.25,0,0,1-4.74,1l-4.73.06Zm2.79,2.47.14,9.77h1.17a9.59,9.59,0,0,0,3.45-.39c1.06-.43,2.18-1.36,2.14-4.44,0-1.38-.26-3.63-2.33-4.59a6.74,6.74,0,0,0-3.1-.36Z" transform="translate(-15.03 -15.04)" style="fill:#fff"/><polygon points="258.29 35.99 257.96 39.45 265.05 40.13 264.82 42.51 257.73 41.83 257.35 45.77 265.63 46.56 265.4 49.04 254.4 47.99 255.81 33.27 266.29 34.27 266.05 36.73 258.29 35.99" style="fill:#fff"/><path d="M291.19,61.33a4.92,4.92,0,0,0,4.05,3.1,4.33,4.33,0,0,0,1.61.08,1.77,1.77,0,0,0,1.57-1.42,1.51,1.51,0,0,0-.8-1.66,10.41,10.41,0,0,0-1.59-.79l-1.67-.72a14.51,14.51,0,0,1-1.73-.88,3.79,3.79,0,0,1-1.72-4c.55-2.75,3.23-4.05,6.64-3.36a6.93,6.93,0,0,1,5.24,4.12L300.23,57A4.28,4.28,0,0,0,296.91,54c-1.46-.29-2.86.11-3.08,1.22s1.05,1.75,2.32,2.26l1.43.63c1.86.8,4.46,2.17,3.83,5.26-.67,3.33-4,4-7.1,3.43a10.41,10.41,0,0,1-2.52-.85,6.68,6.68,0,0,1-3.2-3.51Z" transform="translate(-15.03 -15.04)" style="fill:#fff"/><rect x="305.56" y="62.09" width="14.79" height="2.72" transform="translate(148.73 330.73) rotate(-73.61)" style="fill:#fff"/><path d="M335.78,70.8l-2.94,7.53-2.2-.85.46-1.18a5.62,5.62,0,0,1-4.36.06c-4.26-1.66-5.17-5.94-3.73-9.64,1.69-4.34,5.74-6.26,9.53-4.79a6.51,6.51,0,0,1,4.23,6.33l-2.84,0a3.77,3.77,0,0,0-2.27-4c-2.6-1-4.75.76-5.81,3.47-1.18,3-.2,5.41,2,6.29a3.48,3.48,0,0,0,4.64-1.88l-3.43-1.34.88-2.26Z" transform="translate(-15.03 -15.04)" style="fill:#fff"/><polygon points="341.28 58.41 343.69 59.68 336.8 72.75 334.67 71.63 333.78 59.45 329.1 68.68 326.71 67.43 333.61 54.36 335.81 55.52 336.71 67.8 341.28 58.41" style="fill:#fff"/><path d="M373.19,96.37a5,5,0,0,0,2.3,4.56,4.21,4.21,0,0,0,1.42.76,1.79,1.79,0,0,0,2-.59,1.53,1.53,0,0,0,0-1.84,12.3,12.3,0,0,0-1.09-1.4l-1.19-1.38a14.86,14.86,0,0,1-1.17-1.54,3.79,3.79,0,0,1,.21-4.4c1.7-2.23,4.67-2.23,7.44-.13a6.92,6.92,0,0,1,2.92,6h-2.83a4.28,4.28,0,0,0-1.72-4.07c-1.18-.91-2.62-1.16-3.3-.25s.18,2,1.1,3l1,1.19c1.33,1.54,3.07,3.89,1.16,6.4-2.05,2.7-5.38,1.89-7.88,0a9.81,9.81,0,0,1-1.89-1.87,6.64,6.64,0,0,1-1.36-4.55Z" transform="translate(-15.03 -15.04)" style="fill:#fff"/><polygon points="385.56 94.09 382.55 91.32 374.24 100.34 372.21 98.47 380.52 89.44 377.58 86.74 379.28 84.89 387.26 92.24 385.56 94.09" style="fill:#fff"/><path d="M416.92,123l-7,6.19c-1.26,1.09-2.29,2-4.33,1.72a6.7,6.7,0,0,1-4-2.37,7.4,7.4,0,0,1-1.43-2.22,4.65,4.65,0,0,1,.21-4.25,11.16,11.16,0,0,1,2.07-2.12l6.58-5.84,1.84,2.07-6.79,6a5.1,5.1,0,0,0-1.22,1.33,3,3,0,0,0,.79,3.29,3.6,3.6,0,0,0,2.12,1.28c1.09.13,1.72-.43,2.64-1.24l6.68-5.93Z" transform="translate(-15.03 -15.04)" style="fill:#fff"/><path d="M424.09,132l3.07,4.32a7.12,7.12,0,0,1,1.59,4.24c0,3-2.2,5-3.54,6-2.07,1.47-4.67,2.26-7,1.21a9,9,0,0,1-3.48-3.36L412,140.58Zm-.44,3.71-8,5.65.67,1a9.89,9.89,0,0,0,2.28,2.63c1,.63,2.36,1,4.88-.76,1.12-.8,2.85-2.28,2.46-4.53-.17-.85-.4-1.22-1.47-2.76Z" transform="translate(-15.03 -15.04)" style="fill:#fff"/><rect x="423.38" y="154.16" width="14.76" height="2.72" transform="translate(-34.47 224.51) rotate(-30.42)" style="fill:#fff"/><path d="M432.09,174.54a6.26,6.26,0,0,1-.15-5.57,8.2,8.2,0,0,1,4.11-4.14c4.08-2,8.35-.59,10.09,3.06,1.58,3.31.59,7.58-4,9.73-3.83,1.81-8.13,1-10.08-3.08M443.84,169c-1.09-2.29-3.67-2.93-6.45-1.61-3,1.43-4,4-3,6.16.79,1.67,3,3.23,6.26,1.75,2.64-1.18,4.41-3.67,3.15-6.3" transform="translate(-15.03 -15.04)" style="fill:#fff"/><path d="M380,209.56v46.72c-.11,8.4-.11,15.33-8,22.05-7.55,6.61-17.32,7.24-22.36,7.24a39.42,39.42,0,0,1-13.12-2c-8.82-3-13.54-9.44-15.23-15-.94-3.26-.94-5.56-1.05-14.8v-44.2h13.86v45.57c0,3.14-.1,6.19.95,9,2.83,7.13,10.6,8,15,8,2.21,0,7.77-.1,11.87-3.67s4.09-7.87,4.09-14.07V209.56Z" transform="translate(-15.03 -15.04)" style="fill:#fff"/></svg>