<svg xmlns="http://www.w3.org/2000/svg" viewBox="0 0 343.06 486.87"><path d="M130.27,379.8v5.59a4.25,4.25,0,0,0,.67.79c.42.33.86.65,1.31.94l75.92,50.7,65.12,43.44,24.49,16.29a8.34,8.34,0,0,0,4.7,1.88H427.27c.37-1.88.32-160.3,0-161.87H381.32l2.51-2.14,41.77-35.3a3.69,3.69,0,0,0,1.46-3.18l.27-.21V136.27H321.54A4.22,4.22,0,0,1,318,134.7L242.43,48.8,212.72,15.12h0l-2.3-2.55H84.47V168.8a7.67,7.67,0,0,1,0,2v2.82l.31.79c1.62.73,65.48,47,66.37,48.19H130.27V379.44m177-35H420.59v148H307.18v-148Zm-7,20.05v13.63H257.36v-31.8a3.06,3.06,0,0,1,.89-2.4l43.86-44.7a3.78,3.78,0,0,1,3-1.25H417.35l-1.51,1.46-41.77,35a14.38,14.38,0,0,1-3.66,2.82,14.51,14.51,0,0,1-4.65,0H300.34v27Zm0-115.92v41a3.88,3.88,0,0,1-1.25,3l-40.31,41L257.31,335V230c4.91,1.93,9.55,4.07,14.25,6.11L286,242.32Zm-2-8.3-38.7-16.81a10,10,0,0,0-4.28-.89H211.78c.88-1.36,83.86-72.79,88.45-76.19V241l-1.93-.73ZM141.13,384.4h62.66a3.54,3.54,0,0,1,2.4.47c.36.26,1,0,1.57,0h92.37V490.71C298.56,490.29,144,387.17,141.13,384.4ZM250.26,229.53v148H137.05v-148Zm-45.69-61.88H91.63c-.37-1.25-.53-145.16,0-147.83,1.25-.36,111-.47,113.31,0V167.65Zm24.12,28.14,1.57,1.41-1.36,1-27.05,23.23a3.84,3.84,0,0,1-2.76,1H165a4.21,4.21,0,0,1-2.66-.78l-63.76-45.9-1-.78v-.52h105a5.2,5.2,0,0,1,3.82,1.41c7.41,6.68,15,13.21,22.45,19.79Zm81.2-60v.41H301a18.16,18.16,0,0,1-1.67,1.94l-62.66,53.78-.88.68-15.57-13.47c-2.35-2.09-4.64-4.18-7-6.16a3.83,3.83,0,0,1-1.52-3.4V24.94h0l.63.63Zm110.7,155.13c-1.31.37-110.13.52-113.21,0-.36-1.3-.41-145.89,0-147.93H420.59V290.93Z" transform="translate(-84.47 -12.57)" style="fill:#fff"/><path d="M350.78,177.62h27.78L411.61,259H382.73l-4.07-11.44h-30.5L344,258.87H316.26Zm4.54,50.65h16.34a236,236,0,0,0-8.3-23.18L355,228.27Z" transform="translate(-84.47 -12.57)" style="fill:#fff"/><path d="M181.86,264.2v46.52a13.18,13.18,0,0,0,3.6,9.92A11.79,11.79,0,0,0,198,323.88a11.32,11.32,0,0,0,7.89-9.87,24.66,24.66,0,0,0,.26-4.12V264.36h26.89v46.15a39.8,39.8,0,0,1-2.4,14.42,32.24,32.24,0,0,1-20.42,19.26,49.2,49.2,0,0,1-20.47,2.35,43.56,43.56,0,0,1-15.66-3.86,32.4,32.4,0,0,1-19.32-27.94V264.51c1.41-.42,25-.52,27,0Z" transform="translate(-84.47 -12.57)" style="fill:#fff"/><path d="M111.62,135.48V54.34h40.73a44.44,44.44,0,0,1,16.09,2.82,25.64,25.64,0,0,1,17.28,24.12,36.43,36.43,0,0,1-1.78,14.21,25.59,25.59,0,0,1-9.76,13.05l-1.2.94,15.66,26.11H158.41l-9.66-20.89H138.62v20.89c-1.46.42-25.06.47-27,0v-.11Zm27-41.51h12a15,15,0,0,0,2.51,0,7.68,7.68,0,0,0,6.32-5.53,13.05,13.05,0,0,0,.36-6.79,7.93,7.93,0,0,0-8.09-6.84H138.52V94Z" transform="translate(-84.47 -12.57)" style="fill:#fff"/><path d="M342.21,460.17l-23.86.15V379.18c1.41-.42,22.87-.58,28.51,0l17.75,42.4,17.76-42.4h28.51v81a222.55,222.55,0,0,1-23.39,0V417.24H387l-13.42,35.3H356l-13.47-35.45h-.32v42.76" transform="translate(-84.47 -12.57)" style="fill:#fff"/></svg>